<svg width="25" height="25" viewBox="0 0 25 25" fill="none" xmlns="http://www.w3.org/2000/svg">
<g filter="url(#filter0_d_722_2515)">
<path d="M13.0037 23.3754C18.5265 23.3754 23.0037 18.8999 23.0037 13.3791C23.0037 7.85831 18.5265 3.38281 13.0037 3.38281C7.48081 3.38281 3.00366 7.85831 3.00366 13.3791C3.00366 18.8999 7.48081 23.3754 13.0037 23.3754Z" stroke="#6A4DFD" stroke-miterlimit="10"/>
<path d="M7.94776 15.5798C7.64569 14.9044 7.47876 14.1575 7.47876 13.3787C7.47876 10.3989 9.89529 7.99121 12.8683 7.99121C14.5217 7.99121 16.0002 8.73021 16.9859 9.8983" stroke="#6A4DFD" stroke-miterlimit="10"/>
<path d="M18.0596 11.9004C18.1948 12.3692 18.2663 12.8619 18.2663 13.3784C18.2663 16.3582 15.8498 18.7659 12.8768 18.7659C11.5334 18.7659 10.3013 18.2732 9.36328 17.4627" stroke="#6A4DFD" stroke-miterlimit="10"/>
<path d="M12.8689 18.7666V23.3833" stroke="#6A4DFD" stroke-miterlimit="10"/>
<path d="M12.8689 7.98366V3.38281" stroke="#6A4DFD" stroke-miterlimit="10"/>
</g>
<defs>
<filter id="filter0_d_722_2515" x="-1.49634" y="-1.11719" width="29" height="28.9922" filterUnits="userSpaceOnUse" color-interpolation-filters="sRGB">
<feFlood flood-opacity="0" result="BackgroundImageFix"/>
<feColorMatrix in="SourceAlpha" type="matrix" values="0 0 0 0 0 0 0 0 0 0 0 0 0 0 0 0 0 0 127 0" result="hardAlpha"/>
<feOffset/>
<feGaussianBlur stdDeviation="2"/>
<feComposite in2="hardAlpha" operator="out"/>
<feColorMatrix type="matrix" values="0 0 0 0 0.415686 0 0 0 0 0.301961 0 0 0 0 0.992157 0 0 0 1 0"/>
<feBlend mode="normal" in2="BackgroundImageFix" result="effect1_dropShadow_722_2515"/>
<feBlend mode="normal" in="SourceGraphic" in2="effect1_dropShadow_722_2515" result="shape"/>
</filter>
</defs>
</svg>
