<?xml version="1.0" encoding="utf-8"?>
<!-- Generator: Adobe Illustrator 25.0.1, SVG Export Plug-In . SVG Version: 6.00 Build 0)  -->
<svg version="1.0" id="katman_1" xmlns="http://www.w3.org/2000/svg" xmlns:xlink="http://www.w3.org/1999/xlink" x="0px" y="0px"
	 viewBox="0 0 190 119" style="enable-background:new 0 0 190 119;" xml:space="preserve">
<style type="text/css">
	.st0{clip-path:url(#SVGID_2_);}
	.st1{fill:#49AB77;}
</style>
<g>
	<defs>
		<rect id="SVGID_1_" x="22" y="40" width="146" height="39"/>
	</defs>
	<clipPath id="SVGID_2_">
		<use xlink:href="#SVGID_1_"  style="overflow:visible;"/>
	</clipPath>
	<g class="st0">
		<path class="st1" d="M80.2,63.7c0,3.4-2.8,5.8-6.2,5.8h-8.1c-0.2,0-0.4-0.2-0.4-0.4V49.8c0-0.2,0.2-0.4,0.4-0.4h7.5
			c3.4,0,6.1,2.3,6.1,5.6c0,1.7-0.7,3.1-1.9,4C79.2,60.1,80.2,61.6,80.2,63.7z M69.4,53.2v4.4h4c1.2,0,2.1-0.9,2.1-2.2
			c0-1.3-0.9-2.2-2.1-2.2L69.4,53.2L69.4,53.2z M76.3,63.5c0-1.3-1-2.4-2.3-2.4h-4.6v4.7h4.6C75.3,65.8,76.3,64.8,76.3,63.5z"/>
		<path class="st1" d="M82.7,51.2c0-1.2,1-2.3,2.3-2.3c1.3,0,2.3,1.1,2.3,2.3c0,1.2-1,2.3-2.3,2.3C83.8,53.5,82.7,52.5,82.7,51.2z
			 M83.5,55.2h3c0.2,0,0.4,0.2,0.4,0.4v13.6c0,0.2-0.2,0.4-0.4,0.4h-3c-0.2,0-0.4-0.2-0.4-0.4V55.6C83.2,55.4,83.3,55.2,83.5,55.2z"
			/>
		<path class="st1" d="M95.9,58.8v6c0,1.5,1,1.6,2.9,1.5c0.2,0,0.4,0.2,0.4,0.4v2.6c0,0.2-0.1,0.3-0.3,0.4c-4.9,0.5-6.6-1.1-6.6-4.9
			v-6H90c-0.2,0-0.4-0.2-0.4-0.4v-2.8c0-0.2,0.2-0.4,0.4-0.4h2.1v-2.4c0-0.6,0.4-1.2,1-1.4l2.2-0.7c0.2-0.1,0.5,0.1,0.5,0.3v4.1h2.9
			c0.2,0,0.4,0.2,0.4,0.4v2.8c0,0.2-0.2,0.4-0.4,0.4H95.9z"/>
		<path class="st1" d="M112.1,68.3l-6.2-7.8v8.7c0,0.2-0.2,0.4-0.4,0.4h-3.2c-0.2,0-0.4-0.2-0.4-0.4V49.8c0-0.2,0.2-0.4,0.4-0.4h3.2
			c0.2,0,0.4,0.2,0.4,0.4v8.8l6.2-7.9c0.6-0.8,1.6-1.3,2.6-1.3h2.2c0.3,0,0.5,0.3,0.3,0.6l-7.3,9.5l7.3,9.4c0.2,0.2,0,0.6-0.3,0.6
			h-2.2C113.6,69.5,112.7,69.1,112.1,68.3z"/>
		<path class="st1" d="M125.8,66.6c1.3,0,2.4-0.5,3-1.2c0.1-0.1,0.3-0.2,0.5-0.1l2.4,1.4c0.2,0.1,0.2,0.4,0.1,0.5
			c-1.4,1.7-3.4,2.7-6,2.7c-4.8,0-7.8-3.3-7.8-7.6c0-4.3,3.1-7.6,7.6-7.6c4.2,0,7.2,3.4,7.2,7.6c0,0.5-0.1,1-0.1,1.5h-10.8
			C122.2,65.8,123.8,66.6,125.8,66.6z M129,61c-0.5-2.1-2-2.9-3.6-2.9c-2,0-3.3,1.1-3.8,2.9H129z"/>
		<path class="st1" d="M142.9,66.6c1.3,0,2.4-0.5,3-1.2c0.1-0.1,0.3-0.2,0.5-0.1l2.4,1.4c0.2,0.1,0.2,0.4,0.1,0.5
			c-1.4,1.7-3.4,2.7-6,2.7c-4.8,0-7.8-3.3-7.8-7.6c0-4.3,3.1-7.6,7.6-7.6c4.2,0,7.2,3.4,7.2,7.6c0,0.5-0.1,1-0.1,1.5h-10.8
			C139.4,65.8,141,66.6,142.9,66.6z M146.1,61c-0.5-2.1-2-2.9-3.6-2.9c-2,0-3.3,1.1-3.8,2.9H146.1z"/>
		<path class="st1" d="M168,62.4c0,4.3-3.1,7.6-7,7.6c-2.1,0-3.6-0.8-4.6-2.1v7.1c0,0.2-0.2,0.4-0.4,0.4h-3c-0.2,0-0.4-0.2-0.4-0.4
			V55.6c0-0.2,0.2-0.4,0.4-0.4h3c0.2,0,0.4,0.2,0.4,0.4v1.3c1-1.3,2.5-2.1,4.6-2.1C164.9,54.8,168,58.1,168,62.4z M164.3,62.4
			c0-2.4-1.7-4-4-4c-2.3,0-4,1.6-4,4c0,2.4,1.7,4,4,4C162.6,66.4,164.3,64.8,164.3,62.4z"/>
		<path class="st1" d="M44.6,76l-15.9-9.2c-0.6-0.3-0.9-0.9-0.9-1.6V46.7c0-0.3-0.3-0.5-0.5-0.3L24,48.3c-1.2,0.7-2,2-2,3.5v15.5
			c0,1.4,0.8,2.7,2,3.5l13.4,7.8c1.2,0.7,2.8,0.7,4,0l3.3-1.9C44.9,76.4,44.9,76.1,44.6,76z"/>
		<path class="st1" d="M31.6,65.1l6.9,4c0.6,0.3,1.3,0.3,1.8,0l6.9-4c0.6-0.3,0.9-0.9,0.9-1.6v-8c0-0.6-0.3-1.2-0.9-1.6l-6.9-4
			c-0.6-0.3-1.3-0.3-1.8,0l-1.7,1c-0.1,0.1-0.3,0-0.3-0.2l0-9.1c0-0.3-0.3-0.5-0.5-0.3l-4.4,2.5c-0.6,0.3-0.9,0.9-0.9,1.6l0,18
			C30.7,64.1,31,64.7,31.6,65.1z M35.6,57.9c0-0.4,0.2-0.7,0.5-0.9l2.7-1.6c0.3-0.2,0.8-0.2,1.1,0l2.7,1.6c0.3,0.2,0.5,0.6,0.5,0.9
			v3.1c0,0.4-0.2,0.7-0.5,0.9l-2.7,1.6c-0.3,0.2-0.8,0.2-1.1,0L36.1,62c-0.3-0.2-0.5-0.6-0.5-0.9V57.9z"/>
		<path class="st1" d="M54.8,48.3l-13.4-7.8c-0.6-0.3-1.2-0.5-1.8-0.5c-0.1,0-0.2,0.1-0.2,0.2v5.7c0,0.1,0.1,0.2,0.2,0.3l10.5,6.1
			c0.6,0.3,0.9,0.9,0.9,1.6v11.3c0,0.6-0.3,1.2-0.9,1.6l-7.2,4.2c-0.2,0.1-0.2,0.5,0,0.6l4.9,2.8c0.2,0.1,0.5,0.1,0.7,0l6.3-3.7
			c1.2-0.7,2-2,2-3.5V51.7C56.7,50.3,56,49,54.8,48.3z"/>
	</g>
</g>
</svg>
