<svg width="25" height="25" viewBox="0 0 25 25" fill="none" xmlns="http://www.w3.org/2000/svg">
<path d="M20.5967 9.77051H11.5967C10.4921 9.77051 9.59668 10.6659 9.59668 11.7705V20.7705C9.59668 21.8751 10.4921 22.7705 11.5967 22.7705H20.5967C21.7012 22.7705 22.5967 21.8751 22.5967 20.7705V11.7705C22.5967 10.6659 21.7012 9.77051 20.5967 9.77051Z" stroke="white" stroke-linecap="round" stroke-linejoin="round"/>
<path d="M5.59668 15.7705H4.59668C4.06625 15.7705 3.55754 15.5598 3.18247 15.1847C2.80739 14.8096 2.59668 14.3009 2.59668 13.7705V4.77051C2.59668 4.24007 2.80739 3.73137 3.18247 3.35629C3.55754 2.98122 4.06625 2.77051 4.59668 2.77051H13.5967C14.1271 2.77051 14.6358 2.98122 15.0109 3.35629C15.386 3.73137 15.5967 4.24007 15.5967 4.77051V5.77051" stroke="white" stroke-linecap="round" stroke-linejoin="round"/>
</svg>
