<svg width="16" height="17" viewBox="0 0 16 17" fill="none" xmlns="http://www.w3.org/2000/svg">
<path d="M7.3335 2.99707H2.66683C2.31321 2.99707 1.97407 3.13755 1.72402 3.38759C1.47397 3.63764 1.3335 3.97678 1.3335 4.3304V13.6637C1.3335 14.0174 1.47397 14.3565 1.72402 14.6065C1.97407 14.8566 2.31321 14.9971 2.66683 14.9971H12.0002C12.3538 14.9971 12.6929 14.8566 12.943 14.6065C13.193 14.3565 13.3335 14.0174 13.3335 13.6637V8.99707" stroke="white" stroke-linecap="round" stroke-linejoin="round"/>
<path d="M12.3335 1.99722C12.5987 1.732 12.9584 1.58301 13.3335 1.58301C13.7086 1.58301 14.0683 1.732 14.3335 1.99722C14.5987 2.26244 14.7477 2.62215 14.7477 2.99722C14.7477 3.37229 14.5987 3.732 14.3335 3.99722L8.00016 10.3306L5.3335 10.9972L6.00016 8.33056L12.3335 1.99722Z" stroke="white" stroke-linecap="round" stroke-linejoin="round"/>
</svg>
