<svg width="25" height="25" viewBox="0 0 25 25" fill="none" xmlns="http://www.w3.org/2000/svg">
<path d="M17.3267 2.94824H7.32666C4.56524 2.94824 2.32666 5.18682 2.32666 7.94824V17.9482C2.32666 20.7097 4.56524 22.9482 7.32666 22.9482H17.3267C20.0881 22.9482 22.3267 20.7097 22.3267 17.9482V7.94824C22.3267 5.18682 20.0881 2.94824 17.3267 2.94824Z" stroke="white" stroke-linecap="round" stroke-linejoin="round"/>
<path d="M16.3269 12.3185C16.4503 13.1508 16.3081 14.0008 15.9206 14.7476C15.5331 15.4944 14.92 16.1 14.1685 16.4782C13.417 16.8565 12.5653 16.9881 11.7346 16.8545C10.904 16.7208 10.1366 16.3286 9.54169 15.7337C8.94677 15.1388 8.55459 14.3714 8.42092 13.5408C8.28726 12.7101 8.41892 11.8584 8.79718 11.1069C9.17544 10.3554 9.78104 9.74228 10.5278 9.35479C11.2746 8.96729 12.1246 8.82513 12.9569 8.94854C13.8058 9.07443 14.5917 9.47001 15.1985 10.0769C15.8054 10.6837 16.201 11.4696 16.3269 12.3185Z" stroke="white" stroke-linecap="round" stroke-linejoin="round"/>
<path d="M17.8267 7.44824H17.8367" stroke="white" stroke-linecap="round" stroke-linejoin="round"/>
</svg>
