<svg width="25" height="25" viewBox="0 0 25 25" fill="none" xmlns="http://www.w3.org/2000/svg">
<path d="M21.3421 4.79933C20.8313 4.28833 20.2249 3.88297 19.5574 3.60641C18.89 3.32985 18.1746 3.1875 17.4521 3.1875C16.7296 3.1875 16.0142 3.32985 15.3467 3.60641C14.6793 3.88297 14.0728 4.28833 13.5621 4.79933L12.5021 5.85933L11.4421 4.79933C10.4104 3.76763 9.01111 3.18803 7.55207 3.18803C6.09304 3.18803 4.69376 3.76763 3.66207 4.79933C2.63038 5.83102 2.05078 7.23029 2.05078 8.68933C2.05078 10.1484 2.63038 11.5476 3.66207 12.5793L4.72207 13.6393L12.5021 21.4193L20.2821 13.6393L21.3421 12.5793C21.8531 12.0686 22.2584 11.4621 22.535 10.7947C22.8115 10.1272 22.9539 9.41181 22.9539 8.68933C22.9539 7.96684 22.8115 7.25143 22.535 6.58397C22.2584 5.91651 21.8531 5.31008 21.3421 4.79933V4.79933Z" stroke="#6A4DFD" stroke-linecap="round" stroke-linejoin="round"/>
</svg>
