<svg width="25" height="25" viewBox="0 0 25 25" fill="none" xmlns="http://www.w3.org/2000/svg">
<path d="M13.4227 14.3375L13.8909 14.5129L13.8908 14.5132C13.8908 14.5132 13.8916 14.5112 13.8936 14.5064L13.9026 14.4843C13.9104 14.4656 13.9209 14.4408 13.9341 14.4098C13.9604 14.348 13.9964 14.2647 14.0409 14.1623C14.1299 13.9577 14.2517 13.6797 14.3965 13.3507C14.6861 12.6929 15.0664 11.8334 15.4567 10.9545C16.2385 9.19359 17.0561 7.36371 17.265 6.91559C17.3655 6.70023 17.4576 6.49175 17.5256 6.32807C17.5299 6.31754 17.5342 6.30713 17.5384 6.29685C17.6548 6.28955 17.8046 6.28269 17.9852 6.27662C18.4793 6.26 19.1782 6.25 19.9882 6.25C20.8367 6.25 21.4213 6.25119 21.824 6.25799C21.7386 6.33847 21.647 6.42202 21.5519 6.50559C21.5519 6.50559 21.5519 6.5056 21.5519 6.5056L20.6925 7.2609L20.5226 7.4103L20.5226 7.63661L20.5242 12.8653C20.5247 14.3048 20.5337 15.6263 20.5479 16.596C20.555 17.0805 20.5634 17.4794 20.5728 17.762C20.5774 17.9027 20.5825 18.0187 20.588 18.1034C20.5907 18.1449 20.5939 18.1856 20.5981 18.2205C20.6 18.237 20.6033 18.2612 20.6086 18.2873C20.6113 18.3001 20.6161 18.3217 20.6242 18.3471L20.6244 18.3477C20.6295 18.3637 20.6497 18.4267 20.6981 18.4931C20.7386 18.5487 20.8063 18.6148 20.8444 18.6518L20.8468 18.6542C20.9011 18.7071 20.972 18.774 21.0535 18.8496C21.217 19.0013 21.4304 19.1945 21.6546 19.3931C21.7062 19.4388 21.7564 19.4842 21.8049 19.5288C21.2332 19.539 20.3145 19.5405 18.8348 19.5415C17.3627 19.5424 16.4455 19.5415 15.8732 19.5308C15.9417 19.4687 16.0139 19.4048 16.0886 19.3403L16.9738 18.5765L17.1473 18.4267L17.1471 18.1976L17.1442 14.083C17.1434 12.9492 17.1331 11.9344 17.1171 11.2122C17.1092 10.8521 17.0997 10.5604 17.089 10.362C17.0838 10.2655 17.0777 10.1795 17.0699 10.1164L17.0698 10.1156C17.0671 10.0937 17.06 10.0358 17.0413 9.97774C17.0358 9.96051 17.0245 9.92781 17.0044 9.89007C16.9908 9.86445 16.9402 9.77129 16.8299 9.70087C16.7664 9.66035 16.6773 9.62404 16.5688 9.6221C16.4597 9.62015 16.3678 9.6536 16.3007 9.6941C16.1843 9.76422 16.1311 9.8607 16.117 9.88681C16.0929 9.93127 16.0092 10.1189 15.8989 10.3676C15.7805 10.6346 15.6151 11.01 15.4147 11.4662C15.0139 12.3785 14.4729 13.6152 13.8883 14.956L14.3467 15.1558L13.8883 14.956L11.9072 19.5005L11.8481 19.4953L9.45541 14.7782L9.0095 15.0044L9.45541 14.7782C8.76262 13.4124 8.12996 12.173 7.6687 11.2763C7.43815 10.8281 7.24998 10.4646 7.11837 10.2135C7.05275 10.0883 7.00025 9.98927 6.96326 9.9211C6.94515 9.88772 6.92876 9.85804 6.91562 9.83538C6.9099 9.82552 6.90031 9.80918 6.88942 9.79268L6.8892 9.79235C6.88534 9.78651 6.87109 9.76491 6.85065 9.74076L6.85014 9.74016C6.84275 9.73141 6.81125 9.69414 6.76181 9.65826C6.7395 9.64207 6.67397 9.59632 6.57602 9.57461C6.45613 9.54804 6.26985 9.55837 6.11986 9.70356C6.03235 9.78827 6.00032 9.88359 5.9959 9.89673C5.99572 9.89726 5.99559 9.89765 5.9955 9.89791C5.98539 9.92672 5.98012 9.95032 5.97788 9.96089C5.97305 9.98368 5.97076 10.0023 5.9699 10.0095C5.96786 10.0266 5.96678 10.0423 5.96619 10.0514C5.96488 10.0719 5.96386 10.0966 5.963 10.1221C5.96122 10.1747 5.95953 10.2486 5.95792 10.3397C5.95466 10.5229 5.95155 10.7848 5.94872 11.1055C5.94307 11.7471 5.93856 12.6282 5.93658 13.5941L5.92919 17.1034L5.92878 17.2968L6.05855 17.4401L7.26094 18.768C7.26094 18.768 7.26094 18.768 7.26095 18.768C7.5003 19.0323 7.72279 19.2858 7.908 19.5035C7.44897 19.5159 6.77579 19.5208 5.81429 19.5208C4.74998 19.5208 4.07043 19.519 3.63548 19.5082C3.80976 19.2974 4.02584 19.0494 4.26032 18.7943C4.56687 18.4608 4.85517 18.1325 5.07356 17.8708C5.18236 17.7405 5.27676 17.6232 5.34829 17.5283C5.38378 17.4812 5.41698 17.4352 5.44454 17.3934C5.46353 17.3645 5.50828 17.2963 5.53588 17.2176C5.55922 17.1511 5.56633 17.083 5.56819 17.0652C5.56829 17.0642 5.56838 17.0634 5.56845 17.0627C5.57201 17.03 5.57484 16.9926 5.57723 16.9539C5.58207 16.8755 5.58628 16.7721 5.58998 16.6492C5.59741 16.4025 5.60322 16.0626 5.60726 15.6553C5.61534 14.8401 5.61638 13.7461 5.60845 12.5696L5.5797 8.29872L5.5784 8.10561L5.44764 7.96352L4.40868 6.83445L4.40866 6.83443C4.22354 6.63329 4.05049 6.43815 3.90232 6.26497C4.33902 6.25368 4.99005 6.25 5.95127 6.25H8.58362L8.6325 6.35373C8.6325 6.35374 8.63251 6.35375 8.63251 6.35375C8.7381 6.57785 9.74404 8.56613 10.8625 10.7623C11.6356 12.2805 12.1539 13.2773 12.4871 13.8764C12.6513 14.1716 12.7808 14.3891 12.8791 14.5264C12.919 14.5822 12.9903 14.6785 13.0849 14.7472C13.1213 14.7738 13.2666 14.8766 13.4727 14.8491C13.7386 14.8136 13.8549 14.6093 13.891 14.5127L13.4227 14.3375ZM13.4227 14.3375C13.4122 14.3657 13.3864 14.3577 13.3417 14.3072C13.3416 14.3072 13.3416 14.3071 13.3416 14.3071C13.2903 14.249 13.2141 14.1348 13.1075 13.9546L22.2927 5.77177C21.9024 5.75224 21.2087 5.75 19.9882 5.75C18.3618 5.75 17.1685 5.7901 17.1685 5.8449C17.1685 5.89708 17.008 6.28375 16.8119 6.70427C16.4508 7.47856 14.3153 12.2825 13.6306 13.8521C13.6547 13.89 13.6752 13.9206 13.6923 13.9445C13.7091 13.9679 13.7171 13.977 13.7171 13.977C13.7171 13.9769 13.7017 13.9594 13.6728 13.9384L13.6719 13.9377C13.6653 13.9329 13.6437 13.9171 13.6096 13.9005C13.5045 14.1417 13.4377 14.2975 13.4227 14.3375ZM16.0762 10.23C16.0762 10.2298 16.0764 10.2314 16.0769 10.235C16.0764 10.232 16.0762 10.2302 16.0762 10.23ZM17.6685 5.8449C17.6685 5.87111 17.6665 5.89598 17.6631 5.91954C17.6663 5.89665 17.6685 5.87125 17.6685 5.8449ZM17.3103 6.31739C17.3068 6.31815 17.3064 6.31808 17.3101 6.31743L17.3103 6.31739Z" stroke="white"/>
</svg>
