<svg width="25" height="25" viewBox="0 0 25 25" fill="none" xmlns="http://www.w3.org/2000/svg">
<g clip-path="url(#clip0_746_2439)">
<g filter="url(#filter0_d_746_2439)">
<path d="M12.7041 15.2451C14.361 15.2451 15.7041 13.902 15.7041 12.2451C15.7041 10.5883 14.361 9.24512 12.7041 9.24512C11.0472 9.24512 9.7041 10.5883 9.7041 12.2451C9.7041 13.902 11.0472 15.2451 12.7041 15.2451Z" stroke="#6A4DFD" stroke-linecap="round" stroke-linejoin="round" shape-rendering="crispEdges"/>
</g>
<g filter="url(#filter1_d_746_2439)">
<path d="M20.1041 15.2451C19.971 15.5467 19.9313 15.8813 19.9901 16.2057C20.0489 16.5301 20.2036 16.8294 20.4341 17.0651L20.4941 17.1251C20.6801 17.3109 20.8276 17.5314 20.9282 17.7742C21.0289 18.017 21.0807 18.2773 21.0807 18.5401C21.0807 18.8029 21.0289 19.0632 20.9282 19.306C20.8276 19.5488 20.6801 19.7694 20.4941 19.9551C20.3084 20.1411 20.0878 20.2886 19.845 20.3892C19.6022 20.4899 19.3419 20.5417 19.0791 20.5417C18.8163 20.5417 18.556 20.4899 18.3132 20.3892C18.0704 20.2886 17.8498 20.1411 17.6641 19.9551L17.6041 19.8951C17.3684 19.6646 17.0691 19.5099 16.7447 19.4511C16.4203 19.3923 16.0857 19.432 15.7841 19.5651C15.4883 19.6919 15.2361 19.9024 15.0584 20.1707C14.8807 20.4389 14.7854 20.7533 14.7841 21.0751V21.2451C14.7841 21.7756 14.5734 22.2843 14.1983 22.6593C13.8232 23.0344 13.3145 23.2451 12.7841 23.2451C12.2537 23.2451 11.745 23.0344 11.3699 22.6593C10.9948 22.2843 10.7841 21.7756 10.7841 21.2451V21.1551C10.7764 20.8241 10.6692 20.5031 10.4766 20.2338C10.284 19.9645 10.0148 19.7594 9.7041 19.6451C9.40249 19.512 9.06791 19.4723 8.74351 19.5311C8.41912 19.5899 8.11978 19.7446 7.8841 19.9751L7.8241 20.0351C7.63836 20.2211 7.41778 20.3686 7.17498 20.4692C6.93219 20.5699 6.67193 20.6217 6.4091 20.6217C6.14627 20.6217 5.88602 20.5699 5.64322 20.4692C5.40042 20.3686 5.17985 20.2211 4.9941 20.0351C4.80815 19.8494 4.66063 19.6288 4.55998 19.386C4.45933 19.1432 4.40753 18.8829 4.40753 18.6201C4.40753 18.3573 4.45933 18.097 4.55998 17.8542C4.66063 17.6114 4.80815 17.3909 4.9941 17.2051L5.0541 17.1451C5.28464 16.9094 5.43929 16.6101 5.49811 16.2857C5.55692 15.9613 5.51722 15.6267 5.3841 15.3251C5.25734 15.0293 5.04686 14.7771 4.77857 14.5994C4.51028 14.4217 4.19589 14.3264 3.8741 14.3251H3.7041C3.17367 14.3251 2.66496 14.1144 2.28989 13.7393C1.91482 13.3643 1.7041 12.8555 1.7041 12.3251C1.7041 11.7947 1.91482 11.286 2.28989 10.9109C2.66496 10.5358 3.17367 10.3251 3.7041 10.3251H3.7941C4.1251 10.3174 4.44611 10.2102 4.7154 10.0176C4.98469 9.82502 5.18982 9.55585 5.3041 9.24512C5.43722 8.9435 5.47692 8.60892 5.41811 8.28453C5.35929 7.96013 5.20464 7.6608 4.9741 7.42512L4.9141 7.36512C4.72815 7.17937 4.58063 6.95879 4.47998 6.716C4.37933 6.4732 4.32753 6.21295 4.32753 5.95012C4.32753 5.68729 4.37933 5.42703 4.47998 5.18424C4.58063 4.94144 4.72815 4.72086 4.9141 4.53512C5.09985 4.34916 5.32042 4.20165 5.56322 4.101C5.80602 4.00035 6.06627 3.94854 6.3291 3.94854C6.59193 3.94854 6.85219 4.00035 7.09498 4.101C7.33778 4.20165 7.55836 4.34916 7.7441 4.53512L7.8041 4.59512C8.03978 4.82565 8.33912 4.9803 8.66351 5.03912C8.98791 5.09794 9.32249 5.05823 9.6241 4.92512H9.7041C9.99987 4.79835 10.2521 4.58787 10.4298 4.31958C10.6075 4.05129 10.7028 3.7369 10.7041 3.41512V3.24512C10.7041 2.71468 10.9148 2.20598 11.2899 1.8309C11.665 1.45583 12.1737 1.24512 12.7041 1.24512C13.2345 1.24512 13.7432 1.45583 14.1183 1.8309C14.4934 2.20598 14.7041 2.71468 14.7041 3.24512V3.33512C14.7054 3.6569 14.8007 3.97129 14.9784 4.23958C15.1561 4.50787 15.4083 4.71835 15.7041 4.84512C16.0057 4.97823 16.3403 5.01794 16.6647 4.95912C16.9891 4.9003 17.2884 4.74565 17.5241 4.51512L17.5841 4.45512C17.7698 4.26916 17.9904 4.12165 18.2332 4.021C18.476 3.92035 18.7363 3.86854 18.9991 3.86854C19.2619 3.86854 19.5222 3.92035 19.765 4.021C20.0078 4.12165 20.2284 4.26916 20.4141 4.45512C20.6001 4.64086 20.7476 4.86144 20.8482 5.10424C20.9489 5.34703 21.0007 5.60729 21.0007 5.87012C21.0007 6.13295 20.9489 6.3932 20.8482 6.636C20.7476 6.87879 20.6001 7.09937 20.4141 7.28512L20.3541 7.34512C20.1236 7.5808 19.9689 7.88013 19.9101 8.20453C19.8513 8.52892 19.891 8.8635 20.0241 9.16512V9.24512C20.1509 9.54089 20.3613 9.79313 20.6296 9.97081C20.8979 10.1485 21.2123 10.2438 21.5341 10.2451H21.7041C22.2345 10.2451 22.7432 10.4558 23.1183 10.8309C23.4934 11.206 23.7041 11.7147 23.7041 12.2451C23.7041 12.7755 23.4934 13.2843 23.1183 13.6593C22.7432 14.0344 22.2345 14.2451 21.7041 14.2451H21.6141C21.2923 14.2464 20.9779 14.3417 20.7096 14.5194C20.4413 14.6971 20.2309 14.9493 20.1041 15.2451Z" stroke="#6A4DFD" stroke-linecap="round" stroke-linejoin="round" shape-rendering="crispEdges"/>
</g>
</g>
<defs>
<filter id="filter0_d_746_2439" x="5.2041" y="4.74512" width="15" height="15" filterUnits="userSpaceOnUse" color-interpolation-filters="sRGB">
<feFlood flood-opacity="0" result="BackgroundImageFix"/>
<feColorMatrix in="SourceAlpha" type="matrix" values="0 0 0 0 0 0 0 0 0 0 0 0 0 0 0 0 0 0 127 0" result="hardAlpha"/>
<feOffset/>
<feGaussianBlur stdDeviation="2"/>
<feComposite in2="hardAlpha" operator="out"/>
<feColorMatrix type="matrix" values="0 0 0 0 0.415686 0 0 0 0 0.301961 0 0 0 0 0.992157 0 0 0 1 0"/>
<feBlend mode="normal" in2="BackgroundImageFix" result="effect1_dropShadow_746_2439"/>
<feBlend mode="normal" in="SourceGraphic" in2="effect1_dropShadow_746_2439" result="shape"/>
</filter>
<filter id="filter1_d_746_2439" x="-2.7959" y="-3.25488" width="31" height="31" filterUnits="userSpaceOnUse" color-interpolation-filters="sRGB">
<feFlood flood-opacity="0" result="BackgroundImageFix"/>
<feColorMatrix in="SourceAlpha" type="matrix" values="0 0 0 0 0 0 0 0 0 0 0 0 0 0 0 0 0 0 127 0" result="hardAlpha"/>
<feOffset/>
<feGaussianBlur stdDeviation="2"/>
<feComposite in2="hardAlpha" operator="out"/>
<feColorMatrix type="matrix" values="0 0 0 0 0.415686 0 0 0 0 0.301961 0 0 0 0 0.992157 0 0 0 1 0"/>
<feBlend mode="normal" in2="BackgroundImageFix" result="effect1_dropShadow_746_2439"/>
<feBlend mode="normal" in="SourceGraphic" in2="effect1_dropShadow_746_2439" result="shape"/>
</filter>
<clipPath id="clip0_746_2439">
<rect width="24" height="24" fill="white" transform="translate(0.704102 0.245117)"/>
</clipPath>
</defs>
</svg>
