<svg width="25" height="24" viewBox="0 0 25 24" fill="none" xmlns="http://www.w3.org/2000/svg">
<path d="M7.1392 4.84957C6.94394 4.65431 6.62735 4.65431 6.43209 4.84957L3.25011 8.03155C3.05485 8.22681 3.05485 8.5434 3.25011 8.73866C3.44537 8.93392 3.76195 8.93392 3.95722 8.73866L6.78564 5.91023L9.61407 8.73866C9.80933 8.93392 10.1259 8.93392 10.3212 8.73866C10.5164 8.5434 10.5164 8.22681 10.3212 8.03155L7.1392 4.84957ZM7.28564 21.2031L7.28564 5.20312L6.28564 5.20313L6.28564 21.2031L7.28564 21.2031Z" fill="white"/>
<path d="M17.8466 20.3536C18.0419 20.5488 18.3585 20.5488 18.5537 20.3536L21.7357 17.1716C21.931 16.9763 21.931 16.6597 21.7357 16.4645C21.5405 16.2692 21.2239 16.2692 21.0286 16.4645L18.2002 19.2929L15.3718 16.4645C15.1765 16.2692 14.8599 16.2692 14.6647 16.4645C14.4694 16.6597 14.4694 16.9763 14.6647 17.1716L17.8466 20.3536ZM17.7002 4L17.7002 20L18.7002 20L18.7002 4L17.7002 4Z" fill="white"/>
</svg>
