<svg width="24" height="25" viewBox="0 0 24 25" fill="none" xmlns="http://www.w3.org/2000/svg">
<path d="M19.3927 5.65978L19.3927 5.65979C18.6967 5.92751 17.5891 6.35248 16.9312 6.60423C16.2736 6.85589 15.4396 7.17559 15.0778 7.3147C14.7153 7.45407 13.5766 7.89085 12.5473 8.28531C10.5895 9.03563 7.59042 10.1854 6.08377 10.7632C5.59748 10.9497 4.70053 11.293 4.09042 11.5262C3.78801 11.6418 3.49115 11.7585 3.25706 11.8531C3.13988 11.9004 3.03977 11.9417 2.96318 11.9743C2.92483 11.9906 2.89371 12.0041 2.87001 12.0148C2.84677 12.0252 2.83659 12.0303 2.83501 12.031C2.83483 12.0311 2.83477 12.0312 2.8348 12.0311L2.83471 12.0312C2.72553 12.0886 2.64011 12.1501 2.58111 12.2052C2.55935 12.2255 2.54351 12.2427 2.53217 12.2564C2.56481 12.2855 2.60726 12.3157 2.65434 12.3404C2.6536 12.34 2.65323 12.3397 2.65326 12.3397C2.6535 12.3391 2.68054 12.35 2.75582 12.3763C2.83615 12.4044 2.94633 12.4415 3.07924 12.4853C3.34459 12.5728 3.69411 12.6848 4.06318 12.8L4.06319 12.8L6.41088 13.5325L6.41089 13.5325L7.19351 13.7766C7.41011 13.6418 8.02011 13.2601 8.70623 12.8298C9.52596 12.3156 11.1012 11.3281 12.2068 10.6353L12.2068 10.6353C13.3123 9.94253 14.8875 8.95508 15.707 8.44099C16.6922 7.82299 17.2088 7.4994 17.498 7.3288C17.6401 7.24493 17.7472 7.18601 17.8369 7.1471C17.9484 7.09876 18.0292 7.08297 18.1026 7.07312C18.2296 7.05608 18.3997 7.04671 18.562 7.10075C18.6496 7.12992 18.7604 7.18617 18.8501 7.29465C18.9454 7.4099 18.9854 7.54612 18.9854 7.67397C18.9854 7.76145 18.9676 7.84066 18.9481 7.90051C18.9299 7.95651 18.8954 8.04138 18.8312 8.12095M19.3927 5.65978L18.2356 8.06419M19.3927 5.65978C20.0945 5.3898 20.7582 5.14069 20.8773 5.10137M19.3927 5.65978L20.8773 5.10137M18.8312 8.12095L18.4421 7.80705L18.8315 8.12068C18.8314 8.12077 18.8313 8.12086 18.8312 8.12095ZM18.8312 8.12095C18.8072 8.15071 18.7778 8.17931 18.7699 8.18696L18.7686 8.18823C18.7532 8.20321 18.7343 8.22127 18.7131 8.24115C18.6705 8.28125 18.6131 8.33431 18.5457 8.39611C18.4106 8.52001 18.231 8.68268 18.0394 8.8545L18.0393 8.85451C17.129 9.67063 13.1949 13.2068 11.5151 14.7187L11.5151 14.7187C11.1387 15.0575 10.8087 15.3609 10.5729 15.5836C10.4679 15.6828 10.3837 15.764 10.3232 15.8242M10.3232 15.8242C10.3269 15.7773 10.3299 15.7403 10.3322 15.7137C10.3342 15.6905 10.3352 15.6817 10.3352 15.6817C10.3351 15.6817 10.3335 15.6944 10.3304 15.7105C10.3304 15.7105 10.3304 15.7105 10.3304 15.7105C10.3303 15.7105 10.3303 15.7106 10.3303 15.7107C10.3303 15.7107 10.3303 15.7107 10.3303 15.7107C10.3136 15.7949 10.2783 15.8533 10.272 15.8637C10.2717 15.8641 10.2715 15.8644 10.2714 15.8647C10.26 15.8838 10.2502 15.8969 10.2468 15.9013C10.2397 15.9107 10.2364 15.9141 10.2417 15.9081C10.2509 15.8978 10.2699 15.8777 10.3012 15.8461C10.3082 15.8391 10.3155 15.8318 10.3232 15.8242ZM10.3232 15.8242C10.3226 15.8308 10.3221 15.8376 10.3216 15.8445C10.3127 15.9574 10.3008 16.1169 10.2867 16.3116C10.2584 16.7007 10.2213 17.228 10.1822 17.7993C10.1399 18.4182 10.0986 19.0079 10.0677 19.435M10.0677 19.435C9.99004 19.5049 9.9264 19.5598 9.87255 19.6034C9.78929 19.6707 9.75327 19.6905 9.74443 19.6949C9.73827 19.6955 9.71523 19.6979 9.64419 19.7039L9.54605 19.7122C9.57642 19.3051 9.62871 18.5655 9.6834 17.7652C9.76158 16.6215 9.83197 15.6532 9.83987 15.6134C9.84805 15.572 10.424 15.028 11.1806 14.3471C12.8604 12.8351 16.7949 9.29867 17.7056 8.48221C17.8371 8.36432 17.9627 8.25095 18.0717 8.15179C18.1657 8.09761 18.2115 8.07464 18.2348 8.06454C18.2351 8.06441 18.2353 8.06429 18.2356 8.06419M10.0677 19.435C10.3013 19.2249 10.6618 18.8797 11.265 18.302L11.3833 18.1886L11.7292 18.5498M10.0677 19.435C10.042 19.7906 10.0234 20.0334 10.0176 20.0863C10.0176 20.0863 10.0176 20.0863 10.0176 20.0863L10.0142 20.1167M18.2356 8.06419L18.2356 8.06424C18.2313 8.06481 18.2338 8.06391 18.2355 8.06356C18.2366 8.06333 18.2373 8.06334 18.2356 8.06419ZM17.9887 7.62783C17.9913 7.61007 17.995 7.59785 17.9972 7.59106C17.9999 7.58277 18.0041 7.57162 18.0109 7.55795C18.0169 7.54578 18.0297 7.52188 18.0526 7.49343L17.9887 7.62783ZM17.9887 7.62783C17.9373 7.65321 17.8696 7.69049 17.7745 7.74626C17.8083 7.7154 17.8403 7.68619 17.87 7.65898C17.9361 7.59841 17.9898 7.54862 18.028 7.51275C18.0472 7.49466 18.061 7.48146 18.0699 7.47283C18.0724 7.47034 18.0743 7.46844 18.0757 7.46709M17.9887 7.62783L18.0757 7.46709M18.0757 7.46709C18.0776 7.4652 18.0784 7.46437 18.0783 7.46444C18.0782 7.46451 18.0772 7.46544 18.0757 7.46709ZM10.0142 20.1167C10.2344 19.985 10.6111 19.6204 11.7292 18.5498M10.0142 20.1167L21.0953 4.54499C21.4606 4.54069 21.7727 4.74011 21.9181 5.07064M10.0142 20.1167L19.123 16.9678M11.7292 18.5498C12.2142 18.0854 12.6294 17.6981 12.652 17.6892C12.6746 17.6802 13.7117 18.4191 14.9567 19.3312C16.2017 20.2432 17.2616 21.0158 17.312 21.048C17.4684 21.1478 17.8162 21.2483 18.0055 21.2483C18.2288 21.2483 18.4425 21.1503 18.5929 20.979C18.7966 20.747 18.8873 20.481 19.0921 19.5154C19.1991 19.0103 19.4331 17.9108 19.612 17.0721M11.7292 18.5498L11.3833 18.1886C11.627 17.9554 11.8537 17.7409 12.023 17.583C12.1074 17.5043 12.1789 17.4384 12.2316 17.3908C12.2575 17.3674 12.2815 17.3462 12.3011 17.3294C12.3104 17.3214 12.3226 17.3112 12.3353 17.3013C12.3414 17.2966 12.3519 17.2885 12.3649 17.2795L12.3653 17.2792C12.3701 17.2758 12.4114 17.2466 12.468 17.2242C12.5669 17.1851 12.6522 17.1878 12.6879 17.1903C12.7301 17.1933 12.7632 17.201 12.7815 17.2059C12.8181 17.2155 12.8458 17.2273 12.8573 17.2323C12.883 17.2436 12.9037 17.2551 12.9131 17.2604C12.9351 17.2727 12.9576 17.2868 12.9764 17.2988C13.016 17.3243 13.0684 17.3595 13.1295 17.4015C13.253 17.4862 13.4264 17.6082 13.6361 17.7576C14.0561 18.0568 14.6285 18.4709 15.2522 18.9278L15.2522 18.9278C15.8745 19.3837 16.4504 19.8046 16.8769 20.1155C17.0902 20.2709 17.2658 20.3987 17.3911 20.4895C17.477 20.5517 17.5313 20.5907 17.559 20.6105C17.5754 20.6223 17.5824 20.6274 17.581 20.6265L17.5811 20.6266C17.6003 20.6388 17.6735 20.673 17.7852 20.7052C17.8962 20.7373 17.9788 20.7483 18.0055 20.7483C18.0815 20.7483 18.1594 20.7149 18.2172 20.6491L18.2172 20.649C18.3187 20.5335 18.3915 20.4088 18.6029 19.4117C18.7101 18.9063 18.9441 17.8066 19.123 16.9678M19.612 17.0721C19.7909 16.2334 20.0152 15.1807 20.1106 14.7327C20.3435 13.638 20.6836 12.0423 21.0154 10.4872C21.1658 9.7819 21.3916 8.72138 21.5171 8.13047M19.612 17.0721L19.123 16.9678M19.612 17.0721L19.123 16.9678C19.123 16.9678 19.123 16.9678 19.123 16.9678M21.5171 8.13047C21.6425 7.53957 21.8026 6.79876 21.8728 6.48425C21.9715 6.04164 22.0001 5.83799 21.9995 5.58315C21.9988 5.31536 21.9836 5.2197 21.9181 5.07064M21.5171 8.13047L21.028 8.02663M21.5171 8.13047L21.028 8.0266C21.1536 7.43517 21.314 6.69242 21.3848 6.37541C21.4806 5.94559 21.5 5.78417 21.4995 5.58438C21.4992 5.45415 21.4949 5.3961 21.4893 5.36082C21.4856 5.33754 21.4807 5.31822 21.4604 5.27196M21.9181 5.07064L21.4604 5.27196M21.9181 5.07064L21.4604 5.27196M20.8773 5.10137C20.9259 5.08535 20.9845 5.0696 21.0372 5.05813C21.0632 5.05246 21.0845 5.04857 21.0997 5.04628C21.104 5.04563 21.1072 5.0452 21.1094 5.04493C21.2732 5.04575 21.3979 5.12997 21.4604 5.27188L20.8773 5.10137ZM21.4604 5.27196L21.028 8.02663M21.028 8.02663C20.9025 8.61738 20.6768 9.67772 20.5264 10.3829C20.1946 11.9381 19.8545 13.5338 19.6215 14.6286C19.5262 15.0765 19.3019 16.1291 19.123 16.9678M21.028 8.02663L19.123 16.9678M18.233 8.04481C18.2243 8.04146 18.2143 8.03715 18.2034 8.03166L18.233 8.04481ZM2.66079 12.3437C2.66026 12.3435 2.65972 12.3432 2.65919 12.3429C2.65974 12.3432 2.66032 12.3435 2.66094 12.3438L2.66079 12.3437Z" stroke="white"/>
</svg>
