<svg width="25" height="25" viewBox="0 0 25 25" fill="none" xmlns="http://www.w3.org/2000/svg">
<g clip-path="url(#clip0_758_2556)">
<path d="M23.2065 3.94853C22.2489 4.62401 21.1887 5.14064 20.0665 5.47853C19.4643 4.78604 18.6639 4.29522 17.7736 4.07246C16.8833 3.84969 15.946 3.90573 15.0886 4.23299C14.2312 4.56024 13.495 5.14293 12.9795 5.90225C12.4641 6.66156 12.1942 7.56087 12.2065 8.47853V9.47853C10.4492 9.5241 8.70782 9.13435 7.13755 8.34398C5.56729 7.55361 4.21686 6.38717 3.20654 4.94853C3.20654 4.94853 -0.793457 13.9485 8.20654 17.9485C6.14707 19.3465 3.6937 20.0475 1.20654 19.9485C10.2065 24.9485 21.2065 19.9485 21.2065 8.44853C21.2056 8.16999 21.1788 7.89213 21.1265 7.61853C22.1471 6.61203 22.8674 5.34125 23.2065 3.94853V3.94853Z" stroke="white" stroke-linecap="round" stroke-linejoin="round"/>
</g>
<defs>
<clipPath id="clip0_758_2556">
<rect width="24" height="24" fill="white" transform="translate(0.206543 0.948242)"/>
</clipPath>
</defs>
</svg>
