<svg width="25" height="25" viewBox="0 0 25 25" fill="none" xmlns="http://www.w3.org/2000/svg">
<g clip-path="url(#clip0_722_2478)">
<g filter="url(#filter0_d_722_2478)">
<path d="M20.7041 21.0781V19.0781C20.7041 18.0173 20.2827 16.9998 19.5325 16.2497C18.7824 15.4996 17.765 15.0781 16.7041 15.0781H8.7041C7.64324 15.0781 6.62582 15.4996 5.87567 16.2497C5.12553 16.9998 4.7041 18.0173 4.7041 19.0781V21.0781" stroke="#6A4DFD" stroke-linecap="round" stroke-linejoin="round" shape-rendering="crispEdges"/>
</g>
<g filter="url(#filter1_d_722_2478)">
<path d="M12.7041 11.0781C14.9132 11.0781 16.7041 9.28726 16.7041 7.07812C16.7041 4.86899 14.9132 3.07812 12.7041 3.07812C10.495 3.07812 8.7041 4.86899 8.7041 7.07812C8.7041 9.28726 10.495 11.0781 12.7041 11.0781Z" stroke="#6A4DFD" stroke-linecap="round" stroke-linejoin="round" shape-rendering="crispEdges"/>
</g>
</g>
<defs>
<filter id="filter0_d_722_2478" x="0.204102" y="10.5781" width="25" height="15" filterUnits="userSpaceOnUse" color-interpolation-filters="sRGB">
<feFlood flood-opacity="0" result="BackgroundImageFix"/>
<feColorMatrix in="SourceAlpha" type="matrix" values="0 0 0 0 0 0 0 0 0 0 0 0 0 0 0 0 0 0 127 0" result="hardAlpha"/>
<feOffset/>
<feGaussianBlur stdDeviation="2"/>
<feComposite in2="hardAlpha" operator="out"/>
<feColorMatrix type="matrix" values="0 0 0 0 0.415686 0 0 0 0 0.301961 0 0 0 0 0.992157 0 0 0 1 0"/>
<feBlend mode="normal" in2="BackgroundImageFix" result="effect1_dropShadow_722_2478"/>
<feBlend mode="normal" in="SourceGraphic" in2="effect1_dropShadow_722_2478" result="shape"/>
</filter>
<filter id="filter1_d_722_2478" x="4.2041" y="-1.42188" width="17" height="17" filterUnits="userSpaceOnUse" color-interpolation-filters="sRGB">
<feFlood flood-opacity="0" result="BackgroundImageFix"/>
<feColorMatrix in="SourceAlpha" type="matrix" values="0 0 0 0 0 0 0 0 0 0 0 0 0 0 0 0 0 0 127 0" result="hardAlpha"/>
<feOffset/>
<feGaussianBlur stdDeviation="2"/>
<feComposite in2="hardAlpha" operator="out"/>
<feColorMatrix type="matrix" values="0 0 0 0 0.415686 0 0 0 0 0.301961 0 0 0 0 0.992157 0 0 0 1 0"/>
<feBlend mode="normal" in2="BackgroundImageFix" result="effect1_dropShadow_722_2478"/>
<feBlend mode="normal" in="SourceGraphic" in2="effect1_dropShadow_722_2478" result="shape"/>
</filter>
<clipPath id="clip0_722_2478">
<rect width="24" height="24" fill="white" transform="translate(0.704102 0.078125)"/>
</clipPath>
</defs>
</svg>
