<svg width="17" height="17" viewBox="0 0 17 17" fill="none" xmlns="http://www.w3.org/2000/svg">
<path d="M16.1682 8.16992C16.1682 12.5882 12.5865 16.1699 8.16821 16.1699C3.74993 16.1699 0.168213 12.5882 0.168213 8.16992C0.168213 3.75164 3.74993 0.169922 8.16821 0.169922C12.5865 0.169922 16.1682 3.75164 16.1682 8.16992Z" fill="#2F80ED"/>
<path fill-rule="evenodd" clip-rule="evenodd" d="M8.16821 14.9699C11.9237 14.9699 14.9682 11.9255 14.9682 8.16992C14.9682 4.41439 11.9237 1.36992 8.16821 1.36992C4.41268 1.36992 1.36821 4.41439 1.36821 8.16992C1.36821 11.9255 4.41268 14.9699 8.16821 14.9699ZM8.16821 16.1699C12.5865 16.1699 16.1682 12.5882 16.1682 8.16992C16.1682 3.75164 12.5865 0.169922 8.16821 0.169922C3.74993 0.169922 0.168213 3.75164 0.168213 8.16992C0.168213 12.5882 3.74993 16.1699 8.16821 16.1699Z" fill="white"/>
<path fill-rule="evenodd" clip-rule="evenodd" d="M12.2097 5.94943L6.71718 11.3697L4.1268 8.75908L5.10387 7.7896L6.72741 9.42584L11.2429 4.96973L12.2097 5.94943Z" fill="white"/>
</svg>
