<svg width="21" height="21" viewBox="0 0 21 21" fill="none" xmlns="http://www.w3.org/2000/svg">
<path d="M20.5391 10.6367C20.5391 16.1596 16.0619 20.6367 10.5391 20.6367C5.01621 20.6367 0.539062 16.1596 0.539062 10.6367C0.539062 5.11387 5.01621 0.636719 10.5391 0.636719C16.0619 0.636719 20.5391 5.11387 20.5391 10.6367Z" fill="#2F80ED"/>
<path fill-rule="evenodd" clip-rule="evenodd" d="M10.5391 19.1367C15.2335 19.1367 19.0391 15.3311 19.0391 10.6367C19.0391 5.9423 15.2335 2.13672 10.5391 2.13672C5.84464 2.13672 2.03906 5.9423 2.03906 10.6367C2.03906 15.3311 5.84464 19.1367 10.5391 19.1367ZM10.5391 20.6367C16.0619 20.6367 20.5391 16.1596 20.5391 10.6367C20.5391 5.11387 16.0619 0.636719 10.5391 0.636719C5.01621 0.636719 0.539062 5.11387 0.539062 10.6367C0.539062 16.1596 5.01621 20.6367 10.5391 20.6367Z" fill="white"/>
<path fill-rule="evenodd" clip-rule="evenodd" d="M15.591 7.86135L8.72529 14.6367L5.4873 11.3734L6.70864 10.1616L8.73806 12.2069L14.3825 6.63672L15.591 7.86135Z" fill="white"/>
</svg>
